<svg width="30" height="30" viewBox="0 0 30 30" fill="none" xmlns="http://www.w3.org/2000/svg">
<path fill-rule="evenodd" clip-rule="evenodd" d="M8.14506 19.3758C8.34698 19.9731 8.02391 20.6201 7.42345 20.8209C5.47912 21.4713 4.44581 23.0947 3.89309 24.7457C3.67361 25.4012 3.54102 26.0323 3.46134 26.5541C3.98597 26.4749 4.62047 26.343 5.27954 26.1247C6.93933 25.5749 8.57153 24.5471 9.22537 22.6132C9.42729 22.016 10.0778 21.6946 10.6782 21.8954C11.2787 22.0963 11.6017 22.7433 11.3998 23.3405C10.4191 26.2412 7.99362 27.6308 6.00436 28.2897C4.99944 28.6225 4.05867 28.7868 3.37201 28.8688C3.02701 28.9099 2.74179 28.9308 2.53916 28.9414C2.43774 28.9467 2.35669 28.9495 2.29883 28.9509C2.26989 28.9516 2.24672 28.952 2.22968 28.9522L2.20874 28.9524L2.20178 28.9524L2.1992 28.9524L2.19814 28.9524C2.19767 28.9524 2.19722 28.9524 2.19722 27.8115C1.05017 27.8115 1.05017 27.8111 1.05017 27.8106L1.05017 27.8095L1.05018 27.807L1.05021 27.8001L1.0504 27.7792C1.05061 27.7623 1.05099 27.7392 1.05171 27.7104C1.05314 27.6529 1.05591 27.5723 1.06125 27.4714C1.07191 27.2698 1.0929 26.9862 1.13428 26.643C1.21665 25.96 1.38186 25.0243 1.7165 24.0247C2.37894 22.0461 3.77594 19.6335 6.69223 18.6581C7.29268 18.4572 7.94314 18.7786 8.14506 19.3758ZM2.19722 27.8115H1.05017C1.05017 28.4416 1.56372 28.9524 2.19722 28.9524V27.8115Z" fill="#8381D9"/>
<path fill-rule="evenodd" clip-rule="evenodd" d="M27.1873 2.95483C25.8559 2.76384 22.5787 2.69189 19.2247 6.02796L10.3002 14.9048L15.1732 19.7517L24.0977 10.8749C27.4517 7.53884 27.3794 4.27912 27.1873 2.95483ZM27.52 0.697102C25.6889 0.433415 21.6073 0.43113 17.6025 4.41446L7.86697 14.098C7.65186 14.312 7.53101 14.6022 7.53101 14.9048C7.53101 15.2074 7.65186 15.4976 7.86697 15.7115L14.3621 22.172C14.8101 22.6175 15.5364 22.6175 15.9843 22.172L25.7199 12.4884C29.7246 8.5051 29.7223 4.44526 29.4572 2.62398C29.3901 2.13654 29.1645 1.68425 28.8146 1.33626C28.4648 0.988277 28.01 0.76383 27.52 0.697102Z" fill="#8381D9"/>
<path fill-rule="evenodd" clip-rule="evenodd" d="M23.2885 12.1521C23.922 12.1521 24.4356 12.6629 24.4356 13.293V22.506L24.4355 22.5222C24.4269 23.1215 24.1816 23.6932 23.7528 24.114L19.1238 28.7325C18.83 29.0245 18.4619 29.2316 18.059 29.3318C17.6561 29.432 17.2333 29.4215 16.8359 29.3015C16.4385 29.1814 16.0813 28.9563 15.8025 28.6502C15.5238 28.3442 15.3338 27.9689 15.2527 27.564C15.2526 27.5637 15.2528 27.5643 15.2527 27.564L14.0485 21.5893C13.924 20.9715 14.3265 20.3702 14.9477 20.2464C15.5688 20.1225 16.1733 20.5229 16.2978 21.1408L17.5026 27.1181L22.1415 22.4897V13.293C22.1415 12.6629 22.655 12.1521 23.2885 12.1521Z" fill="#8381D9"/>
<path fill-rule="evenodd" clip-rule="evenodd" d="M7.51467 5.69189L7.531 5.69177H16.7934C17.4269 5.69177 17.9405 6.20258 17.9405 6.83269C17.9405 7.46281 17.4269 7.97361 16.7934 7.97361H7.54723L7.53796 7.98302L7.5379 7.98297L2.89407 12.5877L2.89585 12.5881L8.90352 13.786C9.52466 13.9099 9.92725 14.5111 9.80272 15.129C9.6782 15.7468 9.07372 16.1472 8.45258 16.0234L2.44669 14.8258C2.44635 14.8257 2.44601 14.8256 2.44566 14.8255C2.03869 14.7449 1.66134 14.5559 1.3538 14.2788C1.04599 14.0014 0.819673 13.6461 0.698977 13.2508C0.578281 12.8555 0.567738 12.4351 0.668475 12.0343C0.769213 11.6335 0.977449 11.2674 1.27097 10.9751L1.27269 10.9734L1.27269 10.9734L5.9143 6.37087C6.33735 5.94439 6.91217 5.70042 7.51467 5.69189Z" fill="#8381D9"/>
</svg>
